HIERARCHY
ROOT Hips
{
	OFFSET 0.000000 0.000000 0.000000 
	CHANNELS 6 Xposition Yposition Zposition Zrotation Yrotation Xrotation
	JOINT LeftUpLeg
	{
		OFFSET 1.363060 -1.794630 0.839290 
		CHANNELS 3 Zrotation Yrotation Xrotation
		JOINT LeftLeg
		{
			OFFSET 2.448110 -6.726130 0.000000 
			CHANNELS 3 Zrotation Yrotation Xrotation
			JOINT LeftFoot
			{
				OFFSET 2.562200 -7.039590 0.000000 
				CHANNELS 3 Zrotation Yrotation Xrotation
				JOINT LeftToeBase
				{
					OFFSET 0.157640 -0.433110 2.322550 
					CHANNELS 3 Zrotation Yrotation Xrotation
					End Site
					{
						OFFSET 0.000000 0.000000 0.000000 
					}
				}
			}
		}
	}
	JOINT RightUpLeg
	{
		OFFSET -1.305520 -1.794630 0.839290 
		CHANNELS 3 Zrotation Yrotation Xrotation
		JOINT RightLeg
		{
			OFFSET -2.542530 -6.985550 0.000000 
			CHANNELS 3 Zrotation Yrotation Xrotation
			JOINT RightFoot
			{
				OFFSET -2.568260 -7.056230 0.000000 
				CHANNELS 3 Zrotation Yrotation Xrotation
				JOINT RightToeBase
				{
					OFFSET -0.164730 -0.452590 2.363150 
					CHANNELS 3 Zrotation Yrotation Xrotation
					End Site
					{
						OFFSET 0.000000 0.000000 0.000000 
					}
				}
			}
		}
	}
	JOINT Spine
	{
		OFFSET 0.028270 2.035590 -0.193380 
		CHANNELS 3 Zrotation Yrotation Xrotation
		JOINT Spine1
		{
			OFFSET 0.056720 2.048850 -0.042750 
			CHANNELS 3 Zrotation Yrotation Xrotation
			JOINT Neck1
			{
				OFFSET -0.054170 1.746240 0.172020 
				CHANNELS 3 Zrotation Yrotation Xrotation
				JOINT Head
				{
					OFFSET 0.104070 1.761360 -0.123970 
					CHANNELS 3 Zrotation Yrotation Xrotation
					End Site
					{
						OFFSET 0.000000 0.000000 0.000000 
					}
				}
			}
			JOINT LeftArm
			{
				OFFSET 3.362410 1.200890 -0.311210 
				CHANNELS 3 Zrotation Yrotation Xrotation
				JOINT LeftForeArm
				{
					OFFSET 4.983000 -0.000000 -0.000000 
					CHANNELS 3 Zrotation Yrotation Xrotation
					JOINT LeftHand
					{
						OFFSET 3.483560 -0.000000 -0.000000 
						CHANNELS 3 Zrotation Yrotation Xrotation
						JOINT LeftHandIndex1
						{
							OFFSET 0.715260 -0.000000 -0.000000 
							CHANNELS 3 Zrotation Yrotation Xrotation
							End Site
							{
								OFFSET 0.000000 0.000000 0.000000 
							}
						}
					}
				}
			}
			JOINT RightArm
			{
				OFFSET -3.136600 1.374050 -0.404650 
				CHANNELS 3 Zrotation Yrotation Xrotation
				JOINT RightForeArm
				{
					OFFSET -5.241900 -0.000000 -0.000000 
					CHANNELS 3 Zrotation Yrotation Xrotation
					JOINT RightHand
					{
						OFFSET -3.444170 -0.000000 -0.000000 
						CHANNELS 3 Zrotation Yrotation Xrotation
						JOINT RightHandIndex1
						{
							OFFSET -0.622530 -0.000000 -0.000000 
							CHANNELS 3 Zrotation Yrotation Xrotation
							End Site
							{
								OFFSET 0.000000 0.000000 0.000000 
							}
						}
					}
				}
			}
		}
	}
}
MOTION
Frames: 6
Frame Time: 0.041667
-0.835464 18.359468 4.278598 0.837829 3.613848 2.590150 -12.869123 -13.045473 -9.443740 1.237716 7.265514 23.323460 -0.127748 3.234413 -9.921813 8.308400 -16.341400 -53.665900 2.921870 1.893036 -0.982105 -0.020895 0.956185 1.462879 0.351374 -0.397175 5.133583 0.000000 0.000000 0.000000 -20.800384 4.304645 24.744471 6.036421 2.456543 -19.858261 13.293685 -10.442128 26.145923 2.881900 -3.592300 10.248300 -75.861913 -13.740145 55.876314 136.840619 -46.890410 -99.490979 -0.756913 0.371622 -45.486286 -7.125000 0.000000 0.000000 31.881727 19.795666 18.402318 -93.962541 56.638776 -56.646504 2.006806 -0.907225 39.702813 7.125000 0.000000 0.000000 
-0.843488 18.360838 4.283491 0.828103 3.744729 2.691215 -12.735464 -13.126208 -9.499849 1.228964 7.271569 23.280766 -0.124748 3.208098 -9.836789 8.310700 -16.343100 -53.674200 2.914070 1.895705 -0.983332 -0.019591 0.957769 1.464961 0.352047 -0.394114 5.131692 0.000000 0.000000 0.000000 -21.569317 4.317099 24.195634 6.174764 2.438673 -19.769046 13.437952 -10.599734 26.067927 2.899300 -3.654400 10.231900 -75.752100 -13.807612 56.009760 136.653842 -46.997016 -99.344702 -0.755042 0.377614 -45.393193 -7.125000 0.000000 0.000000 30.662477 19.607520 15.491296 -93.394333 56.811337 -55.935803 1.968624 -0.875974 39.300612 7.125000 0.000000 0.000000 
-0.852491 18.362991 4.287112 0.813914 3.823082 2.835218 -12.616082 -13.299651 -9.533003 1.211501 7.276668 23.225364 -0.149113 3.342034 -9.865825 8.332200 -16.358200 -53.750600 2.909470 1.896165 -0.988800 -0.018194 0.955850 1.465920 0.351756 -0.394409 5.128335 0.000000 0.000000 0.000000 -22.229236 4.292570 23.489096 6.331779 2.433653 -19.733202 13.620199 -10.776486 26.100197 2.938200 -3.725900 10.232400 -75.792752 -13.797372 56.115273 136.502144 -47.093788 -99.222815 -0.752166 0.389058 -45.345377 -7.125000 0.000000 0.000000 29.282720 19.637621 12.555477 -92.867467 57.014058 -55.257701 1.937305 -0.879972 38.939479 7.125000 0.000000 0.000000 
-0.861199 18.366220 4.290732 0.828434 3.841990 3.051287 -12.514763 -13.494194 -9.588820 1.189169 7.287951 23.164758 -0.176221 3.512824 -9.963667 8.336100 -16.361000 -53.764500 2.906145 1.895518 -1.000165 -0.016322 0.950741 1.466428 0.350643 -0.397219 5.122744 0.000000 0.000000 0.000000 -23.037533 4.268978 22.474007 6.548330 2.451071 -19.673511 13.706455 -10.976091 26.211052 2.939000 -3.814400 10.223100 -75.934540 -13.690693 56.278080 136.374229 -47.181750 -99.120432 -0.748897 0.393205 -45.337772 -7.125000 0.000000 0.000000 27.876348 19.728693 9.978156 -92.913576 57.140230 -55.141386 1.934223 -0.831991 38.062143 7.125000 0.000000 0.000000 
-0.869810 18.368862 4.293472 0.743344 3.840271 3.168778 -12.353385 -13.587107 -9.663762 1.176286 7.282898 23.118578 -0.196884 3.634178 -10.044534 8.343600 -16.366300 -53.791100 2.903621 1.895863 -1.000976 -0.015708 0.950776 1.466727 0.350671 -0.396753 5.121908 0.000000 0.000000 0.000000 -23.286801 4.325900 22.355370 6.580075 2.456444 -19.586111 13.944950 -11.165574 26.174480 2.989400 -3.880200 10.248400 -76.101784 -13.823386 56.318504 136.224227 -47.264480 -98.999882 -0.747739 0.385747 -45.288543 -7.125000 0.000000 0.000000 26.263850 20.374879 7.028292 -92.570033 57.327243 -54.657099 1.912601 -0.843081 37.543890 7.125000 0.000000 0.000000 
-0.877541 18.371700 4.294744 0.574801 3.791597 3.241054 -12.141845 -13.647126 -9.718782 1.164419 7.278203 23.081640 -0.225546 3.794522 -10.146205 8.381200 -16.392600 -53.924500 2.902314 1.896337 -0.999535 -0.015699 0.951678 1.467127 0.350938 -0.395812 5.122212 0.000000 0.000000 0.000000 -23.253115 4.361293 22.390205 6.475728 2.435243 -19.596596 14.359060 -11.343800 26.171102 3.104200 -3.925800 10.306200 -76.259778 -13.942004 56.258727 136.101030 -47.335156 -98.897223 -0.748082 0.381863 -45.263202 -7.125000 0.000000 0.000000 24.527019 21.492981 4.327308 -92.194760 57.560237 -54.173568 1.880961 -0.827095 36.945585 7.125000 0.000000 0.000000 
